<?xml version="1.0" encoding="UTF-8" standalone="no"?>
<!-- Created with Inkscape (http://www.inkscape.org/) -->

<svg width="57.672974mm" height="57.672989mm" viewBox="0 0 57.672974 57.672989" version="1.1" id="svg5"
    sodipodi:docname="TICKITS.svg" xmlns:inkscape="http://www.inkscape.org/namespaces/inkscape"
    xmlns:sodipodi="http://sodipodi.sourceforge.net/DTD/sodipodi-0.dtd" xmlns="http://www.w3.org/2000/svg"
    xmlns:svg="http://www.w3.org/2000/svg">
    <sodipodi:namedview id="namedview7" pagecolor="#ffffff" bordercolor="#000000" borderopacity="0.25"
        inkscape:showpageshadow="2" inkscape:pageopacity="0.0" inkscape:pagecheckerboard="0"
        inkscape:deskcolor="#d1d1d1" inkscape:document-units="mm" showgrid="false" inkscape:zoom="1.0013187"
        inkscape:cx="447.90932" inkscape:cy="528.3033" inkscape:window-width="1366" inkscape:window-height="740"
        inkscape:window-x="0" inkscape:window-y="28" inkscape:window-maximized="1" inkscape:current-layer="layer1" />
    <defs id="defs2" />
    <g inkscape:label="Layer 1" inkscape:groupmode="layer" id="layer1" transform="translate(-65.695818,-143.30152)">
        <rect style="fill:#197278;fill-opacity:1;stroke-width:0.264583" id="rect357" width="57.672981"
            height="57.672981" x="65.695816" y="143.30153" ry="6.9251294" />
        <path
            d="m 117.34268,156.15742 c -0.007,-0.006 -0.0109,-0.0105 -0.0168,-0.0177 l -2.60928,-2.60291 c -0.24803,0.17426 -0.54808,0.25611 -0.84643,0.23165 -0.29797,-0.0264 -0.57756,-0.15503 -0.79105,-0.36711 -0.21338,-0.21213 -0.34654,-0.49554 -0.37903,-0.80068 -0.0312,-0.30482 0.0422,-0.61197 0.20809,-0.86974 l -2.62706,-2.62096 c -0.0718,-0.0705 -0.16665,-0.109 -0.26595,-0.10738 -0.098,0.002 -0.19293,0.044 -0.26369,0.11654 l -13.342263,13.96815 -0.002,7.4e-4 c -0.0305,0.0344 -0.0631,0.0782 -0.0815,0.12484 -0.0173,0.045 -0.0268,0.0971 -0.0238,0.14732 9.5e-4,0.0498 0.01,0.0995 0.0265,0.14525 0.0228,0.0484 0.0482,0.088 0.0825,0.12275 l 2.62776,2.61844 c 0.24803,-0.17427 0.54791,-0.25548 0.84645,-0.23167 0.297963,0.0264 0.577553,0.15502 0.791023,0.36712 0.21339,0.21214 0.34668,0.49488 0.37804,0.79898 0.0327,0.30449 -0.0398,0.61116 -0.20781,0.86868 l 2.59514,2.58505 c 0.0109,0.0105 0.0217,0.0265 0.0326,0.0372 0.0326,0.0372 0.0774,0.0624 0.12368,0.081 0.045,0.0173 0.0939,0.0279 0.14266,0.0286 0.0498,-9.5e-4 0.0961,-0.0108 0.14298,-0.0343 0.0466,-0.0164 0.0853,-0.049 0.12084,-0.0851 l -1.4e-4,5.2e-4 13.34425,-13.96885 c 0.0372,-0.0326 0.0632,-0.0782 0.0813,-0.1247 0.0173,-0.0451 0.0286,-0.0966 0.0237,-0.14732 -9.5e-4,-0.0498 -0.01,-0.0995 -0.0266,-0.14526 -0.0164,-0.0466 -0.0482,-0.088 -0.0812,-0.12246 z m -2.95697,0.59462 -10.40269,10.88865 c -0.0372,0.0326 -0.0742,0.0651 -0.12084,0.0851 -0.0483,0.0228 -0.0947,0.0324 -0.14298,0.0343 -0.0498,9.5e-4 -0.0984,-0.0114 -0.14266,-0.0286 -0.0451,-0.0173 -0.0879,-0.0436 -0.12354,-0.0809 l -4.085583,-4.07493 c -0.0326,-0.0372 -0.0624,-0.0788 -0.0812,-0.12246 -0.0164,-0.0466 -0.032,-0.0964 -0.0266,-0.14463 -9.5e-4,-0.0498 0.0117,-0.0996 0.0296,-0.1467 0.0193,-0.0444 0.0442,-0.09 0.0813,-0.1247 l 10.402663,-10.88892 c 0.068,-0.0732 0.1636,-0.11522 0.26369,-0.11654 0.0985,-0.003 0.19315,0.0356 0.26402,0.10972 l 4.08514,4.07479 c 0.0326,0.0372 0.0625,0.0788 0.0825,0.12274 0.0164,0.0466 0.0254,0.0942 0.0266,0.14464 9.4e-4,0.0498 -0.0115,0.0987 -0.0238,0.14732 -0.0193,0.0444 -0.0442,0.09 -0.0815,0.12483 z"
            id="path134-2-1" style="fill:#ffffff;stroke-width:1.81225" />
        <path
            d="m 109.40382,160.17656 -1.45013,-0.67929 0.16645,-1.54842 c 10e-4,-0.02 -0.003,-0.0431 -0.0114,-0.0664 -0.009,-0.0174 -0.0255,-0.0359 -0.045,-0.0464 -0.0197,-0.008 -0.046,-0.0132 -0.0683,-0.01 -0.0227,0.002 -0.0392,0.0188 -0.0578,0.0352 l -1.0748,1.12319 -1.4134,-0.66216 c -0.0198,-0.008 -0.0462,-0.0131 -0.0683,-0.01 -0.0213,0.003 -0.0466,0.0164 -0.0578,0.0352 -0.0177,0.0168 -0.0229,0.0367 -0.0297,0.0633 -0.004,0.0201 9.5e-4,0.0498 0.0114,0.0664 l 0.68304,1.42901 -1.07446,1.12284 c -0.0177,0.0168 -0.023,0.0367 -0.0297,0.0633 -0.004,0.0201 9.5e-4,0.0498 0.0113,0.0665 0.008,0.0232 0.0255,0.0358 0.045,0.0464 0.0191,0.0102 0.0388,0.0139 0.0674,0.0132 l 1.50994,-0.20811 0.69997,1.4652 c 0.009,0.0175 0.0255,0.0359 0.045,0.0464 0.019,0.01 0.0388,0.0139 0.0674,0.0132 0.0213,-0.003 0.045,-0.01 0.0566,-0.028 0.0177,-0.0168 0.0305,-0.0344 0.0348,-0.0549 l 0.38639,-1.62657 1.58254,-0.43439 c 0.0232,-0.008 0.0392,-0.0188 0.0578,-0.0352 0.0121,-0.0182 0.0229,-0.0367 0.0297,-0.0633 -3.4e-4,-0.0214 -0.003,-0.0431 -0.0179,-0.0681 -0.009,-0.0175 -0.0255,-0.0358 -0.045,-0.0464 z"
            id="path136-9-2" style="fill:#ffffff;stroke-width:1.81225" />
        <path id="text933"
            style="font-style:italic;font-variant:normal;font-weight:bold;font-stretch:normal;font-size:61.4063px;font-family:Righteous;-inkscape-font-specification:'Righteous Bold Italic';fill:#ffffff;fill-opacity:1;stroke-width:0.639649"
            d="m 77.336882,150.6399 v 8.60516 h 12.922725 v 34.39118 h 8.575187 v -24.6419 l -3.692281,-3.61219 c -1.142657,-1.11802 -1.162466,-2.93823 -0.04444,-4.08088 L 105.52948,150.6399 Z" />
    </g>
</svg>